<svg xmlns="http://www.w3.org/2000/svg" id="hand-heart-line" width="109.974" height="108.597" viewBox="0 0 109.974 108.597"><path id="Path_3" data-name="Path 3" d="M0,0H109.974L109.2,108.6H.779Z" fill="none"></path><path id="Path_4" data-name="Path 4" d="M18.689,29.995a4.431,4.431,0,0,1,1.8.381,4.649,4.649,0,0,1,1.473,1.04,4.9,4.9,0,0,1,1,1.541,5.048,5.048,0,0,1,.37,1.887,30.875,30.875,0,0,1,10.59,1.86,31.518,31.518,0,0,1,4.91,2.278,32.143,32.143,0,0,1,4.508,3.123H53.351a19.886,19.886,0,0,1,8.615,1.956,20.494,20.494,0,0,1,3.695,2.282,21.133,21.133,0,0,1,3.147,3.006l14.509,0a22.023,22.023,0,0,1,6.463.967,22.425,22.425,0,0,1,5.827,2.759,23.132,23.132,0,0,1,4.863,4.331,23.943,23.943,0,0,1,3.572,5.682,60.922,60.922,0,0,1-9.414,10.19,60.254,60.254,0,0,1-11.481,7.781,59.367,59.367,0,0,1-13.133,4.968A59.7,59.7,0,0,1,55.632,87.78a78.576,78.576,0,0,1-9.227-.529,67.734,67.734,0,0,1-8.482-1.543,59.967,59.967,0,0,1-7.731-2.49,54.843,54.843,0,0,1-6.973-3.371,4.815,4.815,0,0,1-.675,1.292,4.647,4.647,0,0,1-1,.995,4.489,4.489,0,0,1-1.236.639,4.4,4.4,0,0,1-1.4.224H5.146a4.432,4.432,0,0,1-1.789-.376A4.634,4.634,0,0,1,1.891,81.6,4.855,4.855,0,0,1,.9,80.075,4.971,4.971,0,0,1,.524,78.21L.234,34.844a5.02,5.02,0,0,1,.35-1.887,4.834,4.834,0,0,1,.98-1.541,4.582,4.582,0,0,1,1.462-1.04,4.4,4.4,0,0,1,1.8-.381Zm4.68,14.529.084,24.193.208.159a43.9,43.9,0,0,0,6.666,4.011,48.609,48.609,0,0,0,7.567,2.925A56.822,56.822,0,0,0,46.338,77.6a68.983,68.983,0,0,0,9.3.608A50.966,50.966,0,0,0,65.768,77.2a50.583,50.583,0,0,0,18.265-7.66,51.019,51.019,0,0,0,7.67-6.353l.616-.64-.55-.481a13.653,13.653,0,0,0-1.705-1.2,13.439,13.439,0,0,0-1.848-.913,13.234,13.234,0,0,0-4-.922L83.275,59l-9.725,0q.124.581.219,1.174t.158,1.2q.063.6.095,1.215t.03,1.233l-.014,4.806H32.65L32.626,59l31.264,0-.156-.376a12.082,12.082,0,0,0-1.675-2.683,11.691,11.691,0,0,0-2.252-2.1,11.321,11.321,0,0,0-2.7-1.412,11.066,11.066,0,0,0-3.007-.635l-.756-.024h-13.5a23.319,23.319,0,0,0-3.53-3.087,22.747,22.747,0,0,0-4.007-2.274A22.287,22.287,0,0,0,27.951,45a22,22,0,0,0-4.578-.478Zm-9.255-4.837H9.5l.185,33.729h4.6ZM58.676,3.581l1.64,1.734L61.96,3.585A11.559,11.559,0,0,1,65.8.9a11.089,11.089,0,0,1,8.729,0,11.482,11.482,0,0,1,3.827,2.685,12.178,12.178,0,0,1,2.531,4.039,12.824,12.824,0,0,1-.037,9.172,12.254,12.254,0,0,1-2.557,4.024L60.276,39.687,42.3,20.813a12.216,12.216,0,0,1-2.547-4.025,12.824,12.824,0,0,1-.013-9.172,12.216,12.216,0,0,1,2.542-4.038A11.519,11.519,0,0,1,46.113.894a11.089,11.089,0,0,1,8.73,0A11.522,11.522,0,0,1,58.677,3.58Zm-9.83,6.907a2.437,2.437,0,0,0-.466.7,2.56,2.56,0,0,0-.145,1.629,2.5,2.5,0,0,0,.335.778l.269.336L60.292,25.966,71.774,13.93a2.446,2.446,0,0,0,.467-.7,2.562,2.562,0,0,0,.145-1.632,2.488,2.488,0,0,0-.336-.778l-.268-.341a2.306,2.306,0,0,0-.666-.489,2.214,2.214,0,0,0-1.551-.146,2.266,2.266,0,0,0-.739.357l-.325.283L60.3,19.1l-8.178-8.623L51.8,10.2a2.26,2.26,0,0,0-.739-.356,2.216,2.216,0,0,0-1.551.148,2.314,2.314,0,0,0-.666.49Z" transform="translate(3.678 10.262)" fill="#d53f34"></path></svg>