<svg xmlns="http://www.w3.org/2000/svg" xmlns:xlink="http://www.w3.org/1999/xlink" width="211" height="190" viewBox="0 0 211 190"><defs><clipPath id="clip-path"><rect id="Rectangle_1" data-name="Rectangle 1" width="211" height="190" transform="translate(89 678)" fill="none" stroke="#707070" stroke-width="1"></rect></clipPath></defs><g id="Mask_Group_1" data-name="Mask Group 1" transform="translate(-89 -678)" clip-path="url(#clip-path)"><g id="Group_2" data-name="Group 2"><g id="Group_1" data-name="Group 1" transform="translate(71.008 668.526)"><g id="quill-pen-line" transform="translate(0 156.255) rotate(-48)"><path id="Path_5" data-name="Path 5" d="M0,182.239H189.144V0H0Z" fill="none"></path><path id="Path_6" data-name="Path 6" d="M31.455,60.5c-1.86-4.741-3.433-9.117-4.838-13.546A59.7,59.7,0,0,0,53.9,56.865c20.063,2.386,37.89,14.989,46.911,30.83L89.192,98.749l11.281,10.75,7.984,7.6c3.433,3.267,7.3,9.3,11.4,17.99-44.652-6.587-72-32.607-88.41-74.59Zm80.314,38.252,7.984-7.59c-7.984-22.792-31.934-45.584-63.868-49.382Q23.923,37.979,15.951,0H0C7.984,45.584,23.951,151.945,143.7,151.945q-11.975-34.153-23.927-45.561Z" transform="translate(22.72 15.147)" fill="#d53f34"></path></g><g id="service-line" transform="translate(79.277 0)"><path id="Path_7" data-name="Path 7" d="M0,0H124.918V124.918H0Z" fill="none"></path><path id="Path_8" data-name="Path 8" d="M11.168,12.476a33.832,33.832,0,0,1,46.011-1.707A33.832,33.832,0,0,1,104.95,58.415L64.534,98.961a10.41,10.41,0,0,1-14.152.531l-.573-.526L9.4,58.415a33.832,33.832,0,0,1,1.77-45.938Zm7.36,7.36a23.422,23.422,0,0,0-.76,32.322l.76.8L57.174,91.606,84.776,64l-18.4-18.4-5.517,5.517A15.616,15.616,0,0,1,38.77,29.038L49.71,18.092a23.427,23.427,0,0,0-30.381.984l-.8.76ZM62.7,34.555a5.2,5.2,0,0,1,7.36,0L92.136,56.635l3.685-3.675A23.422,23.422,0,0,0,63.493,19.076l-.8.76L46.135,36.4a5.2,5.2,0,0,0-.406,6.907l.406.453a5.2,5.2,0,0,0,6.907.406l.453-.406Z" transform="translate(5.285 10.785)" fill="#d53f34"></path></g></g></g></g></svg>