<svg xmlns="http://www.w3.org/2000/svg" id="money-dollar-box-line" width="99.539" height="113.078" viewBox="0 0 99.539 113.078"><path id="Path_1" data-name="Path 1" d="M2.9,3.5,99.539,0,97.084,113.078,0,109.533Z" fill="none"></path><path id="Path_2" data-name="Path 2" d="M5.785,1.944,76.389.107a3.73,3.73,0,0,1,1.594.308,3.858,3.858,0,0,1,1.289.921,4.225,4.225,0,0,1,.853,1.395,4.639,4.639,0,0,1,.286,1.728l-1.6,71.659a4.81,4.81,0,0,1-.365,1.743,4.529,4.529,0,0,1-.92,1.407,4.125,4.125,0,0,1-1.337.929,3.826,3.826,0,0,1-1.615.311L3.745,78.655a3.345,3.345,0,0,1-1.451-.374,3.761,3.761,0,0,1-1.165-.947,4.347,4.347,0,0,1-.765-1.377,4.779,4.779,0,0,1-.249-1.668L1.938,6.274a4.855,4.855,0,0,1,.337-1.655A4.615,4.615,0,0,1,3.11,3.253a4.041,4.041,0,0,1,1.211-.938,3.471,3.471,0,0,1,1.464-.371Zm3.528,8.414L7.735,70.174l62.933,1.28L72.087,9.087ZM25.457,48.863l21.521.125a1.839,1.839,0,0,0,.777-.168,2.046,2.046,0,0,0,.643-.467,2.283,2.283,0,0,0,.443-.7,2.415,2.415,0,0,0,.177-.854,2.365,2.365,0,0,0-.136-.856,2.166,2.166,0,0,0-.409-.7,1.934,1.934,0,0,0-.62-.472,1.794,1.794,0,0,0-.769-.175l-15.71-.046a8.662,8.662,0,0,1-3.751-.862,9.361,9.361,0,0,1-3.008-2.322,10.605,10.605,0,0,1-1.973-3.429A11.731,11.731,0,0,1,22,33.75a12.094,12.094,0,0,1,.861-4.2A11.45,11.45,0,0,1,25,26.111a10.178,10.178,0,0,1,3.123-2.344,9,9,0,0,1,3.791-.892l3.893-.045.216-8.679,7.845-.136-.213,8.724,9.926-.115-.209,8.791L31.7,31.54a1.8,1.8,0,0,0-.76.175,2.033,2.033,0,0,0-.628.468,2.288,2.288,0,0,0-.433.69,2.418,2.418,0,0,0-.173.843,2.346,2.346,0,0,0,.131.842,2.119,2.119,0,0,0,.4.687,1.87,1.87,0,0,0,.6.462,1.732,1.732,0,0,0,.752.168l15.7-.046a8.967,8.967,0,0,1,3.85.852,9.658,9.658,0,0,1,3.119,2.352,10.821,10.821,0,0,1,2.066,3.5,11.819,11.819,0,0,1,.688,4.3,12.072,12.072,0,0,1-.891,4.294,11.406,11.406,0,0,1-2.233,3.49,10.216,10.216,0,0,1-3.234,2.329,9.187,9.187,0,0,1-3.895.82l-3.96-.046-.214,8.769-7.862-.137.217-8.723-9.709-.113Z" transform="translate(9.031 16.14)" fill="#d53f34"></path></svg>