<svg xmlns="http://www.w3.org/2000/svg" id="t-shirt-air-line" width="106.454" height="108.917" viewBox="0 0 106.454 108.917"><path id="Path_9" data-name="Path 9" d="M0,1.136,106.454,0V108.917L0,107.781Z" fill="none"></path><path id="Path_10" data-name="Path 10" d="M52.864,83.459A32.456,32.456,0,0,0,55.9,86.494a20.148,20.148,0,0,0,2.92,2.132,12.968,12.968,0,0,0,2.809,1.262,9.491,9.491,0,0,0,2.7.427,11.549,11.549,0,0,0,1.376-.067A11.015,11.015,0,0,0,67.1,90c.483-.117.994-.27,1.559-.467s1.184-.436,1.884-.725l1.97-.841c1.32-.585,2.478-1.075,3.533-1.481a30.157,30.157,0,0,1,2.924-.977,19.02,19.02,0,0,1,2.683-.533,21.552,21.552,0,0,1,2.81-.151,18.585,18.585,0,0,1,4.557.6,21.479,21.479,0,0,1,4.468,1.729,28.157,28.157,0,0,1,4.374,2.829,39.378,39.378,0,0,1,4.275,3.9l1.125,1.216-7.187,7.935a33.006,33.006,0,0,0-3.084-3.069,20.477,20.477,0,0,0-2.96-2.153,13.173,13.173,0,0,0-2.841-1.274,9.621,9.621,0,0,0-2.727-.432,11.671,11.671,0,0,0-1.386.065,11.1,11.1,0,0,0-1.4.246c-.485.117-1,.27-1.567.466s-1.189.435-1.891.723l-1.975.838c-1.322.581-2.479,1.067-3.534,1.47a30.151,30.151,0,0,1-2.917.967,18.877,18.877,0,0,1-2.67.525,21.236,21.236,0,0,1-2.791.142,18.345,18.345,0,0,1-4.513-.614,21.172,21.172,0,0,1-4.409-1.729,27.735,27.735,0,0,1-4.3-2.813,38.769,38.769,0,0,1-4.19-3.866l-1.1-1.2,7.045-7.873ZM34.435.694A18.48,18.48,0,0,0,35.6,7.208a16.875,16.875,0,0,0,3.188,5.3,14.807,14.807,0,0,0,4.736,3.562,13.41,13.41,0,0,0,5.812,1.28,13.572,13.572,0,0,0,5.825-1.362,15.214,15.214,0,0,0,4.767-3.644A17.309,17.309,0,0,0,63.15,6.966,18.671,18.671,0,0,0,64.331.392L94.584.087a4.586,4.586,0,0,1,1.975.425,5.023,5.023,0,0,1,1.614,1.2A5.67,5.67,0,0,1,99.262,3.5a6.168,6.168,0,0,1,.4,2.2V45.311a6.2,6.2,0,0,1-.4,2.2,5.746,5.746,0,0,1-1.089,1.8,5.1,5.1,0,0,1-1.614,1.213,4.615,4.615,0,0,1-1.975.445l-20.219,0V39.71l15.151-.041V11.429l-17.239.136-.085.231a29.074,29.074,0,0,1-3.717,6.665,26.6,26.6,0,0,1-5.093,5.178,24.217,24.217,0,0,1-6.132,3.438,22.582,22.582,0,0,1-6.835,1.451l-1.076.033a22.262,22.262,0,0,1-7.128-1.139,23.494,23.494,0,0,1-6.394-3.3,25.723,25.723,0,0,1-5.295-5.181A28.325,28.325,0,0,1,26.69,12.15l-.088-.22-16.811.132v27.8l14.753-.04v50.19l14.85.114v11.185l-19.774-.2a4.448,4.448,0,0,1-1.916-.457,5.011,5.011,0,0,1-1.564-1.208,5.736,5.736,0,0,1-1.054-1.779A6.216,6.216,0,0,1,14.7,95.5l0-44.526-9.8.006a4.383,4.383,0,0,1-1.9-.436,4.913,4.913,0,0,1-1.554-1.189A5.649,5.649,0,0,1,.384,47.591,6.182,6.182,0,0,1,0,45.431V6.59A6.215,6.215,0,0,1,.384,4.426,5.724,5.724,0,0,1,1.431,2.652,4.985,4.985,0,0,1,2.986,1.447a4.412,4.412,0,0,1,1.9-.456ZM52.864,61.029A32.241,32.241,0,0,0,55.9,64.05a20.021,20.021,0,0,0,2.92,2.119,12.905,12.905,0,0,0,2.809,1.25,9.472,9.472,0,0,0,2.7.415,11.555,11.555,0,0,0,1.376-.073,11.04,11.04,0,0,0,1.389-.254c.483-.119.994-.275,1.559-.474s1.184-.441,1.884-.733l1.97-.85c1.32-.59,2.478-1.086,3.533-1.5a30.28,30.28,0,0,1,2.924-.99,19.068,19.068,0,0,1,2.683-.545,21.566,21.566,0,0,1,2.81-.163,18.554,18.554,0,0,1,4.557.582,21.384,21.384,0,0,1,4.468,1.709,27.988,27.988,0,0,1,4.374,2.809,39.117,39.117,0,0,1,4.275,3.883l1.125,1.211-7.187,7.967a32.787,32.787,0,0,0-3.084-3.055,20.35,20.35,0,0,0-2.96-2.14,13.109,13.109,0,0,0-2.841-1.261,9.6,9.6,0,0,0-2.727-.42,11.679,11.679,0,0,0-1.386.071,11.128,11.128,0,0,0-1.4.253c-.485.119-1,.274-1.567.473s-1.189.44-1.891.731l-1.975.847C74.922,76.5,73.764,77,72.71,77.4a30.27,30.27,0,0,1-2.917.98,18.925,18.925,0,0,1-2.67.537,21.251,21.251,0,0,1-2.791.154,18.313,18.313,0,0,1-4.513-.594,21.077,21.077,0,0,1-4.409-1.71,27.567,27.567,0,0,1-4.3-2.794,38.512,38.512,0,0,1-4.19-3.847l-1.1-1.2,7.045-7.9Z" transform="translate(1.91 3.005)" fill="#d53f34"></path></svg>